<?xml version="1.0" encoding="utf-8"?>
<!-- Generator: Adobe Illustrator 25.2.1, SVG Export Plug-In . SVG Version: 6.00 Build 0)  -->
<svg version="1.1" id="图层_1" xmlns="http://www.w3.org/2000/svg" xmlns:xlink="http://www.w3.org/1999/xlink" x="0px" y="0px"
	 viewBox="0 0 427 77" style="enable-background:new 0 0 427 77;" xml:space="preserve">
<style type="text/css">
	.st0{display:none;stroke:#000000;stroke-width:0.9;stroke-miterlimit:22.9256;}
	.st1{display:none;}
	.st2{display:inline;stroke:#000000;stroke-width:2;stroke-miterlimit:10;}
	.st3{fill:#FF0000;}
</style>
<g id="图层_x0020_1">
	<path class="st0" d="M88.6,36.7c3.4,0.1,6,1.2,7.7,3.2s2.6,3.8,2.6,5.4c0,1.6-0.6,2.7-1.8,3.5c-1.2,0.8-2.8,1.1-4.9,0.9
		c0,7-0.8,12.1-2.5,15.2s-5.1,4.7-10.2,4.7c-1.6,0-2.9-0.3-4-0.9S73.3,67,72,65.5c-1.3-1.6-3-4.1-5.2-7.7c-1.6-0.2-3.2-0.4-4.8-0.7
		c-0.7,3.5-1.5,6.3-2.5,8.2c-1,1.9-1.9,2.9-2.9,2.9c-0.7,0-1.3-0.4-2-1.2c-3.3-3.9-5.4-6.4-6.4-7.4s-1.8-1.6-2.6-1.9
		c-0.7-0.3-1.3-0.8-1.7-1.7s-0.6-1.9-0.6-3.1c0-3.2,1.6-6.5,4.9-10.1c-1.4-2.9-2-5.7-2-8.3s0.6-5.4,1.8-8.2c1.2-2.9,2.2-4.3,2.8-4.3
		c0.4,0,0.6,0.4,0.6,1.2s0.1,1.9,0.4,3.2c0.2,1.3,0.5,2.3,0.8,3c1.4,3.2,2.1,5.7,2.3,7.5c2.2-1.3,3.5-1.9,4.2-1.9
		c0.2,0,0.3,0.1,0.3,0.3s-0.2,0.6-0.5,1.2c-1.2,2.1-1.9,4.2-2,6.5c0.5,1.3,1,2.3,1.7,3.2c0.8-6,1.6-11.3,2.6-15.8
		c-0.5-2-0.8-3.4-1-4.3s-0.2-1.4-0.1-1.4c0.2,0,0.7,1.2,1.5,3.7c1.3-5.1,2-9,2-11.5c0-0.9-0.1-1.6-0.3-2.1s-0.6-0.9-1.2-1.4
		c-0.6-0.4-1.1-0.7-1.6-0.7c-0.7,0-1.2,0.4-1.6,1.1c-0.4,0.7-0.7,1.1-0.8,1.1c-0.2,0-0.3-0.1-0.3-0.4s0.2-0.9,0.7-1.8
		s1.2-1.3,2.4-1.3c2.2,0,4.2,1.2,6.2,3.5s2.9,4.6,2.9,6.8s-0.4,4.4-1.4,6.8C66.3,35.4,65,40.3,65,43.4c0,2,0.5,4.2,1.4,6.7
		c4.8-4.4,9.3-7.8,13.7-10.3c-0.9-0.1-1.5-0.5-1.8-1.2s-0.5-1.9-0.5-3.5s0.2-2.8,0.6-3.7c0.4-0.9,1-1.6,1.6-2c1.7-1,3.1-2.6,4.1-4.9
		c1.1-2.3,1.6-4.2,1.6-5.7c0-0.5-0.2-0.8-0.4-0.8c-0.2,0-0.8,0.4-1.8,1.2c-1,0.8-2.1,1.9-3.2,3.1c-1.1,1.3-2.5,1.9-4.1,1.9l-1.7-0.1
		c-0.9,0-1.7,0.3-2.3,1c-0.6,0.6-0.9,1-1,1S71,26.1,71,26c0-0.3,0.5-1.5,1.6-3.4c1.1-2,2.3-3.8,3.6-5.4c1.3-1.6,2.5-2.6,3.4-3.1
		s1.9-0.8,3-0.8c2.2,0,4.3,0.9,6.2,2.6c1.9,1.8,2.8,3.7,2.8,5.9c0,1.5-0.5,3.1-1.6,4.9s-2.6,3.8-4.4,6.1
		C86.8,34.1,87.8,35.3,88.6,36.7z M86.5,44.2C86,44.1,85.6,44,85.2,44c-1,0-2.2,0.5-3.6,1.5c-1.3,1-2,1.6-2,1.8s0.2,0.3,0.6,0.3
		s1.3-0.1,2.8-0.4c1.5-0.3,2.5-0.5,3-0.8c0.5-0.2,0.8-0.5,0.8-0.9C86.8,45.1,86.7,44.7,86.5,44.2z M57.4,53.4
		c-1.9-1.7-3.6-3.5-5-5.3c-1.4,3-2,5.2-2,6.6s0.6,2.4,1.8,2.8c1.2,0.4,2.2,0.6,3,0.6s1.3-0.4,1.6-1.1C56.9,56.2,57.2,55,57.4,53.4z
		 M87.6,49.4c-3-0.8-6.2-1.1-9.5-1.1c-2.1,1-3.5,1.7-4.3,2s-1.6,0.5-2.4,0.6s-1.6,0.4-2.2,0.9s-1.2,1.3-1.8,2.3
		c0.3,1.1,0.4,2.1,0.4,2.9c0.8,1.5,2.3,3,4.6,4.3c2.3,1.3,4.2,1.9,5.8,1.9c2.9,0,5.2-1.2,6.9-3.6C86.8,57.3,87.7,53.9,87.6,49.4
		L87.6,49.4z M143.4,32.7c3.2,0.7,5.9,1.5,8.2,2.4s5,2.4,8,4.3c3,2,5.6,3.5,7.8,4.6s3.8,1.8,4.8,2.2c3.1,0.9,6.3,2,9.4,3.3
		c3.2,1.3,4.8,2.4,4.8,3.5c0,1-1.9,1.8-5.7,2.5c-3.8,0.6-6.9,0.9-9.2,0.9c-1.5,0-2.9-0.5-4.2-1.4s-3.7-3-7.3-6.4
		c-3.5-3.4-6.3-5.7-8.2-7.1c-1.9-1.4-3.8-2.2-5.5-2.6c-1.8-0.4-4.4-0.6-8-0.5c-1.1,1.4-2.4,3.5-4,6.5s-3.1,5.8-4.3,8.4
		c-0.4,0.9-1,1.4-1.9,1.6c-0.8,0.2-2.1,0.3-3.9,0.3s-2.7-1.1-2.7-3.2c0-0.6,0.1-1.1,0.3-1.5c0.2-0.4,0.3-0.6,0.5-0.6s0.3,0,0.5,0.2
		c0.1,0.1,0.4,0.2,0.7,0.2s0.9-0.3,1.7-0.8c0.8-0.5,1.3-1.1,1.6-1.7c2.8-5.5,5.2-9.8,7.1-13.1c1.9-3.2,4.1-6.4,6.6-9.4
		s3.7-4.8,3.7-5.5c0-0.6-0.3-1.1-1-1.2c-0.7-0.2-1-0.4-1-0.6s0.6-0.4,1.7-0.6c1.1-0.2,2-0.3,2.8-0.3c1.9,0,3.5,0.6,4.8,1.7
		s2,2.3,2,3.4s-0.4,1.9-1.3,2.5C149,26.5,146.1,29.2,143.4,32.7z M234,32.2c9.4-2.1,15.6-3.1,18.5-3.1s5,0.9,6.2,2.6s1.8,3,1.8,4
		s-0.3,1.7-1,2.3s-1.5,0.9-2.4,0.9s-1.8-0.2-2.6-0.5c-4-1.4-7.6-2.1-10.7-2.1s-6.4,0.5-9.9,1.4c0,5.3,0.2,10.8,0.6,16.4
		c0.4,5.7,0.6,8.8,0.6,9.5c0,2.9-0.7,5.6-2,8s-2.2,3.7-2.7,3.7s-0.9-0.4-1.2-1.1l-1.8-4.6c-0.9-2.3-1.4-3.9-1.4-4.7
		c0-0.8,0.1-1.6,0.4-2.5c1.3-3.8,1.9-8.3,1.9-13.7c0-3.8-0.4-6.9-1.1-9.5c-4.3,1-8.7,2.6-13.1,4.7c-2.7,1.4-4.5,2-5.6,2
		s-2.3-0.6-3.7-1.7c-1.4-1.2-2-2.1-2-2.8s0.1-1.5,0.4-2.4c0.3-0.8,0.6-1.3,0.9-1.5c0.4-0.1,0.7-0.2,1-0.2s0.5,0.2,0.5,0.6
		c0.1,0.4,0.4,0.6,0.9,0.6c1.1,0,3.7-0.6,7.8-1.8c4.2-1.2,8.3-2.2,12.4-3.1c-0.1-1.5-0.1-2.9,0.1-4.2c-1.9,0.9-4,1.6-6.3,2.3
		c-2.3,0.7-3.5,1-3.7,1s-0.3-0.1-0.3-0.2c0-0.2,0.2-0.3,0.7-0.5c5.4-2.4,8.8-4.3,10.1-5.7c0.3-2.7,0.5-5,0.5-6.9s-0.4-3.3-1.2-4.3
		s-1.6-2.3-2.2-4c-0.6-1.7-0.9-3-0.9-4c0-0.6,0.4-0.8,1.3-0.8c1.7,0,3.4,0.3,5.1,1c1.7,0.7,2.8,1.6,3.4,2.9c0.9,2,2.5,2.9,4.8,2.9
		c1.1,0,2-0.1,2.4-0.3c0.5-0.2,0.9-0.6,1.4-1.2s1.2-0.8,2.1-0.8c1.8,0,3.3,0.7,4.7,2c1.4,1.4,2.1,2.8,2.1,4.4c0,0.8-0.2,1.5-0.6,2
		c-0.4,0.5-1,0.9-1.7,1c-4.2,0.5-7.2,1.1-9.1,1.9c-1.9,0.7-3.2,1.8-4,3.2C234.6,27,234.2,29.2,234,32.2L234,32.2z M244.7,45.5
		c2,0,3.7,0.7,5.2,2c1.5,1.4,2.2,2.9,2.2,4.5c0,0.7-0.2,1.2-0.6,1.7c-0.4,0.5-1.5,0.8-3.2,0.8s-3.5-0.3-5.4-1
		c-1.8-0.7-3.2-1.5-4.1-2.5s-1.5-1.5-1.9-1.5s-0.8,0.1-1.2,0.3s-0.6,0.3-0.8,0.3c-0.1,0-0.2,0-0.2-0.2c0-0.3,0.4-0.8,1.1-1.5
		c0.7-0.8,2-1.5,3.8-2.1C241.6,45.8,243.2,45.5,244.7,45.5L244.7,45.5z"/>
</g>
<g class="st1">
	<path class="st2" d="M76.4,61.6c-1.3-0.5-2.1-0.9-2.6-1.2s-1-0.8-1.6-1.4c-0.6-0.6-2-2-4-4.2s-3-3.4-3-3.5c0-0.2,2-2.1,6.1-5.9
		c-0.6-0.9-1.4-3.1-2.3-6.6c-0.9-3.4-1.3-5.8-0.9-7c3.4,3.1,5.4,5.7,6,7.6c0.5,2,1,3,1.3,3.2l2.6-2.1l0.2-2.1l-3-15
		c0.3-0.9,0.6-1.5,0.9-1.6c0.3-0.2,0.9-0.1,1.9,0.2c0.9,0.3,2.1,1.8,3.5,4.5s2.1,4.1,2.1,4.5c0,0.3-0.5,2.7-1.4,7l2.8-2.3
		c-2.2,3.4-3.3,5.2-3.3,5.4S81.5,43,81,46.3s-0.2,6.7,1,10.4l-1.9-0.9c0,0.9-0.3,3.1-0.9,6.6C78.6,62.3,77.7,62.1,76.4,61.6z
		 M72,51.9c-0.5,0.1-1.2,0.3-2.1,0.6c0.6,0.9,1.7,1.6,3.3,2.1c1.6,0.5,2.5,0.5,2.9,0s-0.4-1.8-2.2-4C73,51.4,72.4,51.8,72,51.9z
		 M78.8,30.7c0.3-2.7,0.2-4.6-0.5-5.9c-0.6-1.2-1.2-2-1.6-2.1c-0.5-0.2-0.8-0.2-0.9,0c-0.2,0.2,0.6,5,2.3,14.5
		C78.2,35.5,78.4,33.4,78.8,30.7z M97.1,35.5c-0.2,0.4,0.2,0.6,1.2,0.6s2-0.2,2.9-0.7s1.5-0.7,1.6-0.7c0.2,0,0.6,0.2,1.4,0.7
		s1.2,0.9,1.4,1.4c0.2,0.5,0.2,1,0.2,1.6c-5.6,1.9-8.5,3-8.7,3.3c0,0.3-0.1,0.7-0.1,1.2s1.3,1.7,4,3.8c2.7,2,5.8,3.8,9.4,5.2
		s5.5,2.3,5.6,2.6c0.2,0.3,0.2,0.9,0.2,1.9c-2.5,0.6-4.6,0.9-6.3,0.7c-1.7-0.2-6-3-12.9-8.7c-0.3,1.6-0.2,3.9,0.2,7
		c0.5,3.1,0.1,6.7-1.2,10.8c-0.6,0-1.3-0.6-2.1-1.9c-0.8-1.3-2.7-4.5-5.9-9.8c3.4,2.2,5.3,3.2,5.6,3c0.3-0.2,0.5-0.5,0.7-0.9
		c0.2-0.5,0.1-3.7-0.2-9.6c-1.1-0.4-2.1,0-2.7,1.3S90,51,89.2,52.5c-0.9,1.6-1.8,2.7-2.8,3.3s-1.8,0.9-2.5,0.9
		c-0.6,0-1.3-0.5-1.9-1.4c3.1-2.5,5.3-5.5,6.6-8.9l-2.3,0.9c-0.6-0.6-1-1.5-1.2-2.6s0-2.1,0.5-3s0.9-1.4,1.4-1.4s2.9-2.4,7.3-7.3
		c-2.2,0.2-5.2-0.4-8.9-1.6c0-0.9,0.8-1.8,2.3-2.6c1.6-0.8,3.1-1.6,4.7-2.3c1.6-0.8,2.4-1.6,2.6-2.3c0.2-0.8,0.2-1.5,0.2-2.1
		s-0.3-2-0.9-4.2c-0.3,1.9-0.4,3.9-0.2,6.1c-1.1-4.1-1.6-6.2-1.6-6.6c0-0.3,0.3-0.7,0.8-1.1s1.1-0.6,1.8-0.6c0.6,0,1.4,0.3,2.2,0.8
		c0.9,0.5,1.4,1.1,1.8,1.8c0.3,0.6,0.5,1.4,0.5,2.3s-0.2,2.3-0.5,4.2c2.2,0.9,3.3,1.6,3.3,2.1s-0.8,1.9-2.3,4.3
		C98.3,33.7,97.4,35.1,97.1,35.5z"/>
	<path class="st2" d="M135.7,55.8c-1.7-2.2-2.6-3.8-2.6-4.7s-0.1-1.6-0.2-2.1c-0.2-0.5-0.2-0.9,0-1.4s1.1-1.2,2.8-2.3s4.9-2.4,9.5-4
		s6.8-2.8,6.7-3.8c-2.8,0.6-4.5,0.9-5.2,0.9c-0.6,0-1.1-0.2-1.4-0.5c-0.3-0.3-0.5-0.9-0.7-1.6c-0.2-0.8-0.2-1.3-0.2-1.6
		s0.9-1.7,2.8-4.2l0.5,0.5c0.6-0.3,2.3,0.4,4.9,2.1c2.7,1.7,4.1,2.9,4.2,3.5c0.2,0.6,0.5,0.9,0.9,0.9s1.6,0.3,3.3,0.9
		c1.7,0.6,2.8,1.3,3.3,2.1s0.6,1.5,0.5,2.1c-0.2,0.6-0.5,1-1.2,1.2c-0.6,0.2-1.6,0.1-2.8-0.2c-1.3-0.3-2-0.5-2.1-0.5
		c-0.2,0-0.3,0.2-0.5,0.5s-0.2,0.9-0.2,1.6c0,0.8-0.4,3.8-1.2,9.1s-1.9,8.7-3.3,10.1c-1.4,1.4-2.5,2.1-3.3,2.1s-3-1.3-6.6-3.8
		C140.1,60.3,137.4,58,135.7,55.8z M152.8,43.1c-0.3-0.3-1.3-0.3-2.8,0c-1.6,0.3-4.2,1.6-8,4s-5.7,3.9-5.9,4.7s0.2,1.8,1.2,3
		c0.9,1.3,3.1,2.6,6.6,4c3.4,1.4,5.3,2.1,5.6,2.1s0.7-0.1,1.2-0.2c0.5-0.2,1.1-2.7,1.9-7.7c0.8-5,1.1-7.8,0.9-8.4
		C153.4,43.9,153.1,43.4,152.8,43.1z M156.6,21.1c-2.2,0.9-3.9,1.8-5.2,2.6c-1.3,0.8-5.8,4.6-13.6,11.5c-0.6-0.6-1-1.2-1.2-1.9
		c-0.2-0.6-0.2-1.5-0.2-2.6s0.2-2,0.5-2.6s0.9-1.1,1.6-1.4c0.8-0.3,1.8-1.2,3-2.8l-1.4-3.8c3.1,1.9,6.5,2,10.1,0.5
		c3.6-1.6,5.7-2.3,6.3-2.1c0.6,0.2,1.6,0.9,2.8,2.3s1.8,2.6,1.6,3.5s-0.8,1.9-1.9,2.8c-1.1,0.9-4.5,3-10.1,6.1
		C149.1,31.7,151.6,27.7,156.6,21.1z"/>
	<path class="st2" d="M194.3,57.9c0.5-1.2,1.1-2.3,1.9-3c0.8-0.8,1.3-0.9,1.6-0.2c0.3,0.6,1.2,1.3,2.6,2.1c1.4,0.8,2.4,1.1,3,0.9
		c0.6-0.2,1-0.5,1.2-1.2c0.2-0.6,0.2-1.2,0-1.9c-0.2-0.6-0.5-1.2-1.2-1.6c-0.6-0.5-0.9-1.1-0.9-1.9c0-0.8,0.6-1.6,1.9-2.6
		c2.8,1.9,4.3,3.2,4.5,4s-0.1,2.4-0.7,4.9c2.5-0.6,3.8-0.9,4-0.9s0.4,0.1,0.7,0.2c0.3,0.2,0.5-0.2,0.7-1.2c0.2-0.9-0.1-2-0.7-3.3
		c-0.6-1.2-0.4-1.9,0.7-1.9c1.1,0,2.1,0.7,3,2.1s1.3,2.4,1.2,2.9c-0.2,0.5-1.6,3.1-4.5,7.6c-0.9-1.9-1.9-2.7-2.9-2.5
		s-3.4,1.1-7.1,2.6c-3.8,1.5-5.9,2.3-6.4,2.5c-0.5,0.2-1.2-0.5-2-1.9s-1.2-2.4-1.2-3C193.6,60.1,193.8,59.1,194.3,57.9z M198,59.5
		c-0.2,0.8,0,1.2,0.5,1.2s1.6-0.5,3.5-1.4l-4.2-3.8c-0.3,0.6-0.3,1.3,0,1.9C198.1,58,198.2,58.8,198,59.5z M220.9,68.7
		c-1,0.9-1.7,1.4-2.1,1.5c-0.4,0.1-1.4-0.6-3.2-2c-1.7-1.4-3.4-3.4-5.2-6.1c3.1,0.9,5.2,1.3,6.3,1.2c1.1-0.2,2-0.5,2.6-0.9
		c0.6-0.5,1.5-2.5,2.6-6.1s1.6-5.9,1.6-6.8s-0.9-1.6-2.8-2.1s-5.8,0.2-11.7,2.1c-5.9,1.9-9.1,2.7-9.4,2.3c-0.3-0.3-0.5-0.9-0.7-1.6
		c-0.2-0.8-0.2-1.6-0.2-2.3c0-0.8,0.3-2,0.9-3.8c0.6-1.7,0.9-3.4,0.9-5.2c0-1.7,0.3-3,0.9-3.8c0.6-0.8,0.9-0.9,0.9-0.2
		c0,0.6,0.3,2.2,0.9,4.7c0.6,2.5,0.6,4.5,0,6.1c0.9,0,3.8-0.4,8.7-1.3c4.8-0.9,8.9-0.5,12.2,1.2s5,2.9,5.2,3.9
		c0.2,0.9-0.2,2.7-0.9,5.2c-0.8,2.5-2,5.2-3.6,8.2C223.2,65.8,221.9,67.7,220.9,68.7z M206.5,15.9c-0.2-0.5-0.5-1.1-0.9-1.9
		c-0.5-0.8-0.5-1.2-0.2-1.2s1.2,0.2,2.6,0.7s2.4,1.2,3,2.1c0.6,0.9,0.5,2-0.5,3.3c-0.9,1.3-1.3,2-1.2,2.1c0.2,0.2,1.2,0,3.3-0.5
		c2-0.5,4.2,0,6.6,1.4s3.5,2.4,3.5,3s-0.2,1.3-0.5,2.1c-0.3,0.8-1.4,3.3-3.3,7.5s-3.6,6.6-5.2,7c-1.6,0.5-3.5-0.2-5.9-2.1
		s-3.5-3-3.5-3.3s-0.1-0.8-0.2-1.4c-0.2-0.6,0-1.6,0.5-2.8s1.2-2.1,2.1-2.6s2-0.4,3.3,0.2c1.2,0.6,2,1.3,2.1,1.9
		c0.2,0.6,0.2,1.2,0.2,1.6s-0.2,1-0.5,1.6s-1,1.2-2.1,1.6c-1.1,0.5-2.6,0.1-4.5-1.2c1.9-0.9,2.6-1.6,2.1-1.9
		c-0.5-0.3-1.1-0.2-1.9,0.5c-0.8,0.6-1.1,1.2-0.9,1.6c0.2,0.5,1,1.1,2.6,1.9c1.6,0.8,2.7,1.2,3.3,1.2s1.2-0.2,1.9-0.7
		c0.6-0.5,1.6-2.7,2.8-6.8s1.8-6.3,1.6-6.8s-1.4-0.5-3.6,0c-2.3,0.5-4.5,1.6-6.8,3.5s-3.7,2.5-4.3,1.9s-1-1.6-1.2-3s-0.2-2.3,0-2.8
		s0.8-1,1.9-1.6c1.1-0.6,2-1.6,2.8-3s1.2-2.2,1.2-2.3C206.7,16.7,206.6,16.4,206.5,15.9z"/>
</g>
<g>
	<path d="M66,17.9c1.1,0,2.1,0.2,3.1,0.6c1,0.4,1.9,1,2.6,1.7c0.7,0.7,1.3,1.6,1.7,2.6c0.4,1,0.6,2,0.6,3.2v5.5H63.8v-4
		c0-0.6-0.2-1.2-0.7-1.6c-0.4-0.4-1-0.7-1.7-0.7H18.8v6.3H8.5V17.9h27.4L34,13.7h11.3l1.8,4.1H66z M32.5,46v-5.5H12.7v-7.3h57.2v7.3
		H42.8V46h31.1v7.3H42.8v4.2c0,0.6,0.2,1.2,0.7,1.6c0.4,0.4,1,0.7,1.6,0.7H72l-3.3,7.3H40.6c-1.1,0-2.2-0.2-3.2-0.6
		c-1-0.4-1.9-1-2.6-1.7c-0.7-0.7-1.3-1.6-1.7-2.6c-0.4-1-0.6-2-0.6-3.2v-5.7H8.7V46H32.5z"/>
	<path d="M82.4,14.2l59.1-0.1v0.1l3.8-0.1v45.1v1.7c0,1.6-0.5,2.9-1.6,4c-1.1,1.1-2.4,1.6-3.9,1.6h-11.2l2.7-7.3h3.2
		c0.4,0,0.8-0.1,1.1-0.4c0.3-0.3,0.5-0.7,0.5-1.1V21.5H82.4V14.2z M128.8,32.7H84.4v-7.3h44.4V32.7z M127.7,36.7V38v16.8v1.8
		c0,1.5-0.5,2.8-1.6,3.9c-1.1,1.1-2.4,1.6-3.9,1.6H94.4h-8.1h-1.1V36.7h1.1h8.1H127.7z M117.8,54.8c0.4,0,0.8-0.1,1.1-0.4
		s0.4-0.7,0.4-1.1V44H94.4v10.8H117.8z"/>
	<path d="M153.9,18h9.9v-4.2l8.4-0.1V18h9.9v7.3h-9.9v41.4h-8.4V25.3h-9.9V18z M160.9,66.5h-6.7l1.3-37.4h6.7L160.9,66.5z
		 M173.5,29.1h6.7l1.2,37.4h-6.7L173.5,29.1z M210.5,67c-1.5,0-2.8-0.5-3.9-1.6c-1.1-1.1-1.6-2.4-1.6-4V21.6h-11.6v37.5l-1.8,7.9
		h-9.2l1.9-7.6V14.3l4.6-0.1l4.6,0.1l20.8-0.1v44c0,0.4,0.2,0.8,0.5,1.1c0.3,0.3,0.7,0.4,1.1,0.4h3l-2.1,7.3h-2.6H210.5z"/>
</g>
<g>
	<path d="M252.2,30.9H229v-6.6h31.9v6.8l-22.4,23.4h22.4v6.6H229v-6.3L252.2,30.9z"/>
	<path d="M264.4,54.7v-7.8l20.7-22.6h10.3v23.9h4.8v6.5h-4.8v6.4h-7.8v-6.4H264.4z M273.1,48.2h14.4V32.5L273.1,48.2z"/>
	<path d="M319.2,39.2h18v21.8h-16.4c-2.8,0-5.1-0.2-6.8-0.6c-1.7-0.4-3.2-1.2-4.5-2.2c-3.9-3-5.8-8.1-5.8-15.4
		c0-4.7,0.9-8.7,2.8-11.8c1.4-2.3,3.2-4,5.6-5.1c2.4-1.1,5.4-1.6,9.1-1.6h16v6.6H322c-3.3,0-5.6,0.7-7.1,2.1
		c-1.8,1.7-2.6,4.7-2.6,9.1c0,2.2,0.2,4.3,0.7,6.1c0.5,1.8,1.1,3.1,1.9,4c0.7,0.8,1.7,1.4,2.9,1.8c1.2,0.4,2.7,0.6,4.5,0.6h7.1v-8.7
		h-10.2V39.2z"/>
	<path class="st3" d="M349.5,53.9v7.2h-6.7v-7.2H349.5z"/>
	<path class="st3" d="M384,54.5v6.6h-12.8c-2.4,0-4.3-0.1-5.6-0.4c-4.5-0.9-7.7-3.4-9.6-7.5c-1.2-2.8-1.9-6.2-1.9-10.4
		c0-4.9,1-8.9,2.9-12c1.4-2.2,3.3-3.9,5.6-4.9c2.3-1,5.3-1.5,9-1.5H384v6.6h-11.6c-3.5,0-6,0.9-7.7,2.8c-1.4,1.5-2,4.3-2,8.4
		c0,5.4,1,9,3.1,10.7c1.5,1.2,3.8,1.8,6.9,1.8H384z"/>
	<path class="st3" d="M417.4,54.5v6.6h-12.8c-2.4,0-4.3-0.1-5.6-0.4c-4.5-0.9-7.7-3.4-9.6-7.5c-1.2-2.8-1.9-6.2-1.9-10.4
		c0-4.9,1-8.9,2.9-12c1.4-2.2,3.3-3.9,5.6-4.9c2.3-1,5.3-1.5,9-1.5h12.5v6.6h-11.6c-3.5,0-6,0.9-7.7,2.8c-1.4,1.5-2,4.3-2,8.4
		c0,5.4,1,9,3.1,10.7c1.5,1.2,3.8,1.8,6.9,1.8H417.4z"/>
</g>
</svg>
